<svg width="145" height="234" viewBox="0 0 145 234" fill="currentcolor" style="background-color:white; border-radius: 50%;" xmlns="http://www.w3.org/2000/svg">
<path fill-rule="evenodd" clip-rule="evenodd" d="M121 207.768V208.747H120.984C120.663 218.592 115.519 227.485 107.353 234H145V38V35V0L72.5487 34.4144L0 2V35V38V234H40.6466C32.4815 227.485 27.337 218.592 27.016 208.747H27V207.768V51H121V207.768ZM76.4049 117L80.1249 121.178H90.1777V132.467L96.3554 139.405L90.1777 144.906V151.178H83.1342L73.9505 159.355L66.6686 151.178H60.1777V143.888L54 136.95L60.1777 131.45V121.178H71.7132L76.4049 117Z" fill="black"/>
</svg>
